<mxfile host="app.diagrams.net" agent="Mozilla/5.0 (Windows NT 10.0; Win64; x64) AppleWebKit/537.36 (KHTML, like Gecko) Chrome/109.0.0.0 Safari/537.36" version="24.9.1">
  <diagram name="Página-1" id="KC2Xox01g_nCDVp2KsiE">
    <mxGraphModel dx="1434" dy="796" grid="1" gridSize="10" guides="1" tooltips="1" connect="1" arrows="1" fold="1" page="1" pageScale="1" pageWidth="827" pageHeight="1169" math="0" shadow="0">
      <root>
        <mxCell id="0" />
        <mxCell id="1" parent="0" />
        <object label="Gestão&lt;div&gt;&lt;br&gt;&lt;/div&gt;" Gestão="" id="ygCfUyPYdDu7kBLtxyM9-1">
          <mxCell style="shape=umlActor;verticalLabelPosition=bottom;verticalAlign=top;html=1;outlineConnect=0;" vertex="1" parent="1">
            <mxGeometry x="730" y="250" width="30" height="60" as="geometry" />
          </mxCell>
        </object>
        <mxCell id="ygCfUyPYdDu7kBLtxyM9-2" value="Coordenação Pedagógica&lt;div&gt;&lt;br&gt;&lt;/div&gt;" style="shape=umlActor;verticalLabelPosition=bottom;verticalAlign=top;html=1;outlineConnect=0;" vertex="1" parent="1">
          <mxGeometry x="720" y="370" width="30" height="60" as="geometry" />
        </mxCell>
        <mxCell id="ygCfUyPYdDu7kBLtxyM9-6" value="Professores&lt;div&gt;&lt;br&gt;&lt;/div&gt;" style="shape=umlActor;verticalLabelPosition=bottom;verticalAlign=top;html=1;outlineConnect=0;" vertex="1" parent="1">
          <mxGeometry x="80" y="680" width="30" height="60" as="geometry" />
        </mxCell>
        <mxCell id="ygCfUyPYdDu7kBLtxyM9-8" value="Realizar Cadastro" style="ellipse;whiteSpace=wrap;html=1;" vertex="1" parent="1">
          <mxGeometry x="60" y="250" width="120" height="80" as="geometry" />
        </mxCell>
        <mxCell id="ygCfUyPYdDu7kBLtxyM9-9" value="" style="endArrow=none;html=1;rounded=0;exitX=0.5;exitY=0.5;exitDx=0;exitDy=0;exitPerimeter=0;entryX=0.958;entryY=0.65;entryDx=0;entryDy=0;entryPerimeter=0;" edge="1" parent="1" source="ygCfUyPYdDu7kBLtxyM9-1" target="ygCfUyPYdDu7kBLtxyM9-12">
          <mxGeometry width="50" height="50" relative="1" as="geometry">
            <mxPoint x="720" y="280" as="sourcePoint" />
            <mxPoint x="537" y="277" as="targetPoint" />
          </mxGeometry>
        </mxCell>
        <mxCell id="ygCfUyPYdDu7kBLtxyM9-11" value="Cadastrar Coordenação Pedagógica" style="ellipse;whiteSpace=wrap;html=1;" vertex="1" parent="1">
          <mxGeometry x="414" y="100" width="120" height="80" as="geometry" />
        </mxCell>
        <mxCell id="ygCfUyPYdDu7kBLtxyM9-12" value="Cadastrar Professores" style="ellipse;whiteSpace=wrap;html=1;" vertex="1" parent="1">
          <mxGeometry x="414" y="230" width="120" height="80" as="geometry" />
        </mxCell>
        <mxCell id="ygCfUyPYdDu7kBLtxyM9-15" value="" style="endArrow=classic;html=1;rounded=0;dashed=1;entryX=1;entryY=0;entryDx=0;entryDy=0;exitX=0.033;exitY=0.613;exitDx=0;exitDy=0;exitPerimeter=0;" edge="1" parent="1" source="ygCfUyPYdDu7kBLtxyM9-11" target="ygCfUyPYdDu7kBLtxyM9-8">
          <mxGeometry width="50" height="50" relative="1" as="geometry">
            <mxPoint x="210" y="155" as="sourcePoint" />
            <mxPoint x="200" y="130" as="targetPoint" />
          </mxGeometry>
        </mxCell>
        <mxCell id="ygCfUyPYdDu7kBLtxyM9-16" value="" style="endArrow=classic;html=1;rounded=0;dashed=1;entryX=1;entryY=0.5;entryDx=0;entryDy=0;exitX=1;exitY=0;exitDx=0;exitDy=0;" edge="1" parent="1" source="ygCfUyPYdDu7kBLtxyM9-17" target="ygCfUyPYdDu7kBLtxyM9-8">
          <mxGeometry width="50" height="50" relative="1" as="geometry">
            <mxPoint x="280" y="280" as="sourcePoint" />
            <mxPoint x="427" y="235" as="targetPoint" />
          </mxGeometry>
        </mxCell>
        <mxCell id="ygCfUyPYdDu7kBLtxyM9-17" value="&amp;lt;include&amp;gt;" style="text;html=1;align=center;verticalAlign=middle;whiteSpace=wrap;rounded=0;" vertex="1" parent="1">
          <mxGeometry x="380" y="270" width="60" height="30" as="geometry" />
        </mxCell>
        <mxCell id="ygCfUyPYdDu7kBLtxyM9-18" value="&amp;lt;include&amp;gt;" style="text;html=1;align=center;verticalAlign=middle;whiteSpace=wrap;rounded=0;" vertex="1" parent="1">
          <mxGeometry x="270" y="240" width="60" height="30" as="geometry" />
        </mxCell>
        <mxCell id="ygCfUyPYdDu7kBLtxyM9-20" value="Cadastrar alunos" style="ellipse;whiteSpace=wrap;html=1;" vertex="1" parent="1">
          <mxGeometry x="414" y="360" width="120" height="80" as="geometry" />
        </mxCell>
        <mxCell id="ygCfUyPYdDu7kBLtxyM9-21" value="" style="endArrow=classic;html=1;rounded=0;dashed=1;exitX=0.025;exitY=0.413;exitDx=0;exitDy=0;exitPerimeter=0;entryX=0.942;entryY=0.825;entryDx=0;entryDy=0;entryPerimeter=0;" edge="1" parent="1" source="ygCfUyPYdDu7kBLtxyM9-20" target="ygCfUyPYdDu7kBLtxyM9-8">
          <mxGeometry width="50" height="50" relative="1" as="geometry">
            <mxPoint x="200" y="350" as="sourcePoint" />
            <mxPoint x="330" y="360" as="targetPoint" />
          </mxGeometry>
        </mxCell>
        <mxCell id="ygCfUyPYdDu7kBLtxyM9-23" value="" style="endArrow=none;html=1;rounded=0;exitX=0.5;exitY=0.5;exitDx=0;exitDy=0;exitPerimeter=0;" edge="1" parent="1" source="ygCfUyPYdDu7kBLtxyM9-2" target="ygCfUyPYdDu7kBLtxyM9-20">
          <mxGeometry width="50" height="50" relative="1" as="geometry">
            <mxPoint x="380" y="410" as="sourcePoint" />
            <mxPoint x="430" y="360" as="targetPoint" />
          </mxGeometry>
        </mxCell>
        <mxCell id="ygCfUyPYdDu7kBLtxyM9-24" value="&amp;lt;include&amp;gt;" style="text;html=1;align=center;verticalAlign=middle;whiteSpace=wrap;rounded=0;" vertex="1" parent="1">
          <mxGeometry x="340" y="320" width="60" height="30" as="geometry" />
        </mxCell>
        <mxCell id="ygCfUyPYdDu7kBLtxyM9-25" value="" style="endArrow=none;html=1;rounded=0;exitX=0.5;exitY=0.5;exitDx=0;exitDy=0;exitPerimeter=0;entryX=0.942;entryY=0.675;entryDx=0;entryDy=0;entryPerimeter=0;" edge="1" parent="1" target="ygCfUyPYdDu7kBLtxyM9-11">
          <mxGeometry width="50" height="50" relative="1" as="geometry">
            <mxPoint x="755" y="290" as="sourcePoint" />
            <mxPoint x="539" y="292" as="targetPoint" />
          </mxGeometry>
        </mxCell>
        <mxCell id="ygCfUyPYdDu7kBLtxyM9-26" value="" style="endArrow=none;html=1;rounded=0;exitX=0.5;exitY=0.5;exitDx=0;exitDy=0;exitPerimeter=0;" edge="1" parent="1">
          <mxGeometry width="50" height="50" relative="1" as="geometry">
            <mxPoint x="765" y="300" as="sourcePoint" />
            <mxPoint x="540" y="390" as="targetPoint" />
          </mxGeometry>
        </mxCell>
      </root>
    </mxGraphModel>
  </diagram>
</mxfile>
